   <svg width="100" height="14" viewBox="0 0 100 14" fill="none" xmlns="http://www.w3.org/2000/svg">
<path d="M15.14 -7.15256e-07H24.24V0.859999C23.6667 0.859999 23.1733 0.906666 22.76 1C22.3467 1.09333 21.9333 1.26667 21.52 1.52C20.6667 2.04 20.24 3.12667 20.24 4.78V8.6C20.24 10.0267 20.0267 11.0133 19.6 11.56C19.0933 12.2 18.4 12.6533 17.52 12.92C16.3333 13.2667 14.8733 13.44 13.14 13.44C11.42 13.44 9.96 13.3467 8.76 13.16C7.56 12.9867 6.64 12.7733 6 12.52C5.37333 12.2667 4.88 11.9467 4.52 11.56C4.16 11.16 3.93333 10.8133 3.84 10.52C3.76 10.2133 3.72 9.86 3.72 9.46V3.02C3.72 2.26 3.52 1.71333 3.12 1.38C2.73333 1.03333 2.21333 0.859999 1.56 0.859999H0.8V-7.15256e-07H14.02V0.859999H13.7C13.0467 0.859999 12.52 1.03333 12.12 1.38C11.7333 1.71333 11.54 2.26 11.54 3.02V9.66C11.54 10.62 11.7133 11.3133 12.06 11.74C12.42 12.1667 13.06 12.38 13.98 12.38C14.9133 12.38 15.7267 12.3067 16.42 12.16C17.1133 12.0133 17.6333 11.8 17.98 11.52C18.34 11.24 18.5867 10.9467 18.72 10.64C18.8667 10.32 18.94 9.94667 18.94 9.52V4.78C18.94 4.12667 18.84 3.55333 18.64 3.06C18.4533 2.55333 18.2267 2.16667 17.96 1.9C17.6933 1.63333 17.3733 1.41333 17 1.24C16.4133 0.986666 15.7933 0.859999 15.14 0.859999V-7.15256e-07ZM5.08 0.859999V8.8C5.08 9.97333 5.35333 10.7333 5.9 11.08C6.07333 11.1867 6.23333 11.24 6.38 11.24V0.859999H5.08ZM46.7159 0.859999H46.2959L35.2959 12.14H37.6559C40.0026 12.14 41.8493 11.7 43.1959 10.82C43.8493 10.3933 44.3493 10.02 44.6959 9.7C45.0559 9.36667 45.4359 8.96 45.8359 8.48H46.4159V13H25.4159V12.14H25.8759L36.8559 0.859999H35.7159C34.7959 0.859999 33.9159 0.953332 33.0759 1.14C32.2493 1.31333 31.5559 1.52 30.9959 1.76C30.4493 1.98667 29.8893 2.29333 29.3159 2.68C28.7559 3.06667 28.3426 3.38 28.0759 3.62C27.8226 3.86 27.5159 4.16 27.1559 4.52H26.5759V-7.15256e-07H46.7159V0.859999ZM27.6559 12.14H29.4759L40.4359 0.859999H38.5759L27.6559 12.14ZM63.873 0.9C63.1796 0.9 62.6263 1.08 62.213 1.44C61.813 1.8 61.613 2.26667 61.613 2.84V3.52C61.613 4.88 62.1996 5.56 63.373 5.56C64.2796 5.56 65.233 5.30667 66.233 4.8C67.2463 4.29333 67.913 3.7 68.233 3.02H68.973V9.12H68.233C67.9263 8.41333 67.2796 7.84667 66.293 7.42C65.3063 6.98 64.333 6.76 63.373 6.76C62.7463 6.76 62.293 6.93333 62.013 7.28C61.7463 7.62667 61.613 8.04667 61.613 8.54V9.26C61.613 10.2867 61.713 11.0267 61.913 11.48C62.1263 11.92 62.5996 12.14 63.333 12.14H63.833C64.5796 12.14 65.193 12.1333 65.673 12.12C66.153 12.0933 66.7663 12.02 67.513 11.9C68.2596 11.7667 68.9063 11.5933 69.453 11.38C69.9996 11.1533 70.5796 10.82 71.193 10.38C71.8063 9.92667 72.3463 9.38667 72.813 8.76H73.393V13H49.253V12.14H51.653C53.1063 12.14 53.833 11.42 53.833 9.98V3.06C53.833 2.46 53.6196 1.94667 53.193 1.52C52.7663 1.08 52.253 0.859999 51.653 0.859999H49.253V-7.15256e-07H73.393V4.6H72.813C72.0396 3.56 70.9196 2.68667 69.453 1.98C67.9863 1.26 66.1263 0.9 63.873 0.9ZM56.493 12.14V0.859999H55.173V12.14H56.493ZM88.84 3.06V9.98C88.84 11.42 89.5667 12.14 91.02 12.14C92.14 12.14 93.36 11.8333 94.68 11.22C95.3867 10.8867 96.12 10.38 96.88 9.7C97.64 9.02 98.36 8.2 99.04 7.24H99.72V13H76.46V12.14H78.86C79.5133 12.14 80.0333 11.9733 80.42 11.64C80.82 11.2933 81.02 10.74 81.02 9.98V3.06C81.02 2.46 80.8067 1.94667 80.38 1.52C79.9667 1.08 79.46 0.859999 78.86 0.859999H76.46V-7.15256e-07H94.36V0.859999H91.02C90.42 0.859999 89.9067 1.08 89.48 1.52C89.0533 1.94667 88.84 2.46 88.84 3.06ZM83.68 12.14V0.859999H82.38V12.14H83.68Z" fill="#232324"/>
</svg>
